<svg xmlns="http://www.w3.org/2000/svg" width="152" height="38" fill="none"><path stroke="#000" stroke-width="2" d="M35 1h116v36H35z"/><path fill="#000" d="M34 0h2v31h-2zM66.75 24.75V12.5h3.5V23h7v1.75h-10.5Zm17.5-10.5V12.5h3.5v1.75h-3.5Zm-3.5 10.5V23h3.5v-5.25H82.5V16h5.25v7h3.5v1.75h-10.5Zm12.25 0V12.5h3.5v7h3.5v-1.75h1.75V16h3.5v1.75h-1.75v1.75h-1.75v1.75h1.75V23h1.75v1.75h-3.5V23H100v-1.75h-3.5v3.5H93Zm15.75 0V23H107v-5.25h1.75V16h8.75v1.75h1.75v3.5h-8.75V23h7v1.75h-8.75Zm1.75-5.25h5.25v-1.75h-5.25v1.75ZM6 7H3v3h3V7ZM9 7H6v3h3V7ZM3 10H0v3h3v-3ZM3 13H0v3h3v-3ZM3 16H0v3h3v-3ZM12 7H9v3h3V7ZM6 19H3v3h3v-3ZM9 22H6v3h3v-3ZM12 25H9v3h3v-3ZM21 7h3v3h-3V7ZM18 7h3v3h-3V7ZM24 10h3v3h-3v-3ZM24 13h3v3h-3v-3ZM24 16h3v3h-3v-3ZM15 7h3v3h-3V7ZM21 19h3v3h-3v-3ZM18 22h3v3h-3v-3ZM15 25h3v3h-3v-3ZM15 10h-3v3h3v-3ZM15 28h-3v3h3v-3Z"/></svg>