<svg xmlns="http://www.w3.org/2000/svg" width="163" height="38" fill="none"><path stroke="#000" stroke-width="2" d="M46 1h116v36H46z"/><path fill="#000" d="M77.75 24.75V12.5h3.5V23h7v1.75h-10.5Zm17.5-10.5V12.5h3.5v1.75h-3.5Zm-3.5 10.5V23h3.5v-5.25H93.5V16h5.25v7h3.5v1.75h-10.5Zm12.25 0V12.5h3.5v7h3.5v-1.75h1.75V16h3.5v1.75h-1.75v1.75h-1.75v1.75h1.75V23h1.75v1.75h-3.5V23H111v-1.75h-3.5v3.5H104Zm15.75 0V23H118v-5.25h1.75V16h8.75v1.75h1.75v3.5h-8.75V23h7v1.75h-8.75Zm1.75-5.25h5.25v-1.75h-5.25v1.75Z"/><path stroke="#000" stroke-width="2" d="M1 1h36v36H1z"/><path fill="#000" d="M11.5 7h-3v3h3V7ZM14.5 7h-3v3h3V7ZM8.5 10h-3v3h3v-3ZM8.5 13h-3v3h3v-3ZM8.5 16h-3v3h3v-3ZM17.5 7h-3v3h3V7ZM11.5 19h-3v3h3v-3ZM14.5 22h-3v3h3v-3ZM17.5 25h-3v3h3v-3ZM26.5 7h3v3h-3V7ZM23.5 7h3v3h-3V7ZM29.5 10h3v3h-3v-3ZM29.5 13h3v3h-3v-3ZM29.5 16h3v3h-3v-3ZM20.5 7h3v3h-3V7ZM26.5 19h3v3h-3v-3ZM23.5 22h3v3h-3v-3ZM20.5 25h3v3h-3v-3ZM20.5 10h-3v3h3v-3ZM20.5 28h-3v3h3v-3Z"/></svg>