<svg xmlns="http://www.w3.org/2000/svg" width="160" height="40" fill="none"><g filter="url(#a)"><path stroke="#000" stroke-width="2" d="M41 1h116v36H41z" shape-rendering="crispEdges"/><path fill="#000" d="M72.75 24.75V12.5h3.5V23h7v1.75h-10.5Zm17.5-10.5V12.5h3.5v1.75h-3.5Zm-3.5 10.5V23h3.5v-5.25H88.5V16h5.25v7h3.5v1.75h-10.5Zm12.25 0V12.5h3.5v7h3.5v-1.75h1.75V16h3.5v1.75h-1.75v1.75h-1.75v1.75h1.75V23h1.75v1.75h-3.5V23H106v-1.75h-3.5v3.5H99Zm15.75 0V23H113v-5.25h1.75V16h8.75v1.75h1.75v3.5h-8.75V23h7v1.75h-8.75Zm1.75-5.25h5.25v-1.75h-5.25v1.75Z"/></g><path fill="#000" d="M6.5 7h-3v3h3V7ZM9.5 7h-3v3h3V7ZM3.5 10h-3v3h3v-3ZM3.5 13h-3v3h3v-3ZM3.5 16h-3v3h3v-3ZM12.5 7h-3v3h3V7ZM6.5 19h-3v3h3v-3ZM9.5 22h-3v3h3v-3ZM12.5 25h-3v3h3v-3ZM21.5 7h3v3h-3V7ZM18.5 7h3v3h-3V7ZM24.5 10h3v3h-3v-3ZM24.5 13h3v3h-3v-3ZM24.5 16h3v3h-3v-3ZM15.5 7h3v3h-3V7ZM21.5 19h3v3h-3v-3ZM18.5 22h3v3h-3v-3ZM15.5 25h3v3h-3v-3ZM15.5 10h-3v3h3v-3ZM15.5 28h-3v3h3v-3Z"/><defs><filter id="a" width="120" height="40" x="40" y="0" color-interpolation-filters="sRGB" filterUnits="userSpaceOnUse"><feFlood flood-opacity="0" result="BackgroundImageFix"/><feColorMatrix in="SourceAlpha" result="hardAlpha" values="0 0 0 0 0 0 0 0 0 0 0 0 0 0 0 0 0 0 127 0"/><feOffset dx="2" dy="2"/><feComposite in2="hardAlpha" operator="out"/><feColorMatrix values="0 0 0 0 0 0 0 0 0 0 0 0 0 0 0 0 0 0 1 0"/><feBlend in2="BackgroundImageFix" result="effect1_dropShadow_27_2065"/><feBlend in="SourceGraphic" in2="effect1_dropShadow_27_2065" result="shape"/></filter></defs></svg>