<svg xmlns="http://www.w3.org/2000/svg" style="display: none;">
  <symbol id="diskette" viewBox="0 0 24 24">
    <path fill="currentColor" d="M18 3H6a3 3 0 0 0-3 3v12a3 3 0 0 0 3 3h12a3 3 0 0 0 3-3V6a3 3 0 0 0-3-3zm0 2a1 1 0 0 1 1 1v12a1 1 0 0 1-1 1H6a1 1 0 0 1-1-1V6a1 1 0 0 1 1-1zm-6 12a2 2 0 1 0 0-4 2 2 0 0 0 0 4zM8 7h8a1 1 0 0 1 0 2H8a1 1 0 0 1 0-2z"/>
  </symbol>

  <symbol id="like-default" viewBox="0 0 24 24">
    <path fill="currentColor" d="M16.5 3C14.76 3 13.09 3.81 12 5.09C10.91 3.81 9.24 3 7.5 3C4.42 3 2 5.42 2 8.5C2 12.28 5.4 15.36 10.55 20.04L12 21.35L13.45 20.03C18.6 15.36 22 12.28 22 8.5C22 5.42 19.58 3 16.5 3ZM12.1 18.55L12 18.65L11.9 18.55C7.14 14.24 4 11.39 4 8.5C4 6.5 5.5 5 7.5 5C9.04 5 10.54 5.99 11.07 7.36H12.94C13.46 5.99 14.96 5 16.5 5C18.5 5 20 6.5 20 8.5C20 11.39 16.86 14.24 12.1 18.55Z"/>
  </symbol>

  <symbol id="like-hover" viewBox="0 0 24 24">
    <path fill="currentColor" d="M16.5 3C14.76 3 13.09 3.81 12 5.09C10.91 3.81 9.24 3 7.5 3C4.42 3 2 5.42 2 8.5C2 12.28 5.4 15.36 10.55 20.04L12 21.35L13.45 20.03C18.6 15.36 22 12.28 22 8.5C22 5.42 19.58 3 16.5 3ZM12.1 18.55L12 18.65L11.9 18.55C7.14 14.24 4 11.39 4 8.5C4 6.5 5.5 5 7.5 5C9.04 5 10.54 5.99 11.07 7.36H12.94C13.46 5.99 14.96 5 16.5 5C18.5 5 20 6.5 20 8.5C20 11.39 16.86 14.24 12.1 18.55Z"/>
  </symbol>

  <symbol id="like-focus-icon" viewBox="0 0 24 24">
    <path fill="currentColor" d="M16.5 3C14.76 3 13.09 3.81 12 5.09C10.91 3.81 9.24 3 7.5 3C4.42 3 2 5.42 2 8.5C2 12.28 5.4 15.36 10.55 20.04L12 21.35L13.45 20.03C18.6 15.36 22 12.28 22 8.5C22 5.42 19.58 3 16.5 3ZM12.1 18.55L12 18.65L11.9 18.55C7.14 14.24 4 11.39 4 8.5C4 6.5 5.5 5 7.5 5C9.04 5 10.54 5.99 11.07 7.36H12.94C13.46 5.99 14.96 5 16.5 5C18.5 5 20 6.5 20 8.5C20 11.39 16.86 14.24 12.1 18.55Z"/>
  </symbol>

  <symbol id="unlike-default" viewBox="0 0 24 24">
    <path fill="currentColor" d="M12 21.35L10.55 20.03C5.4 15.36 2 12.28 2 8.5C2 5.42 4.42 3 7.5 3C9.24 3 10.91 3.81 12 5.09C13.09 3.81 14.76 3 16.5 3C19.58 3 22 5.42 22 8.5C22 12.28 18.6 15.36 13.45 20.04L12 21.35Z"/>
  </symbol>

  <symbol id="unlike-hover" viewBox="0 0 24 24">
    <path fill="currentColor" d="M12 21.35L10.55 20.03C5.4 15.36 2 12.28 2 8.5C2 5.42 4.42 3 7.5 3C9.24 3 10.91 3.81 12 5.09C13.09 3.81 14.76 3 16.5 3C19.58 3 22 5.42 22 8.5C22 12.28 18.6 15.36 13.45 20.04L12 21.35Z"/>
  </symbol>

  <symbol id="unlike-click" viewBox="0 0 24 24">
    <path fill="currentColor" d="M12 21.35L10.55 20.03C5.4 15.36 2 12.28 2 8.5C2 5.42 4.42 3 7.5 3C9.24 3 10.91 3.81 12 5.09C13.09 3.81 14.76 3 16.5 3C19.58 3 22 5.42 22 8.5C22 12.28 18.6 15.36 13.45 20.04L12 21.35Z"/>
  </symbol>

  <symbol id="unlike-pressed" viewBox="0 0 24 24">
    <path fill="currentColor" d="M12 21.35L10.55 20.03C5.4 15.36 2 12.28 2 8.5C2 5.42 4.42 3 7.5 3C9.24 3 10.91 3.81 12 5.09C13.09 3.81 14.76 3 16.5 3C19.58 3 22 5.42 22 8.5C22 12.28 18.6 15.36 13.45 20.04L12 21.35Z"/>
  </symbol>


  <symbol id="unlike-layers" viewBox="0 0 24 24">
    <g id="heart-layer">
      <path fill="currentColor" d="M12 21.35L10.55 20.03C5.4 15.36 2 12.28 2 8.5C2 5.42 4.42 3 7.5 3C9.24 3 10.91 3.81 12 5.09C13.09 3.81 14.76 3 16.5 3C19.58 3 22 5.42 22 8.5C22 12.28 18.6 15.36 13.45 20.04L12 21.35Z"/>
    </g>
  </symbol>

</svg>